<?xml version="1.0" encoding="utf-8" standalone="no"?>
<!DOCTYPE svg PUBLIC "-//W3C//DTD SVG 1.1//EN"
  "http://www.w3.org/Graphics/SVG/1.1/DTD/svg11.dtd">
<!-- Created with matplotlib (https://matplotlib.org/) -->
<svg height="329.30975pt" version="1.1" viewBox="0 0 405.419375 329.30975" width="405.419375pt" xmlns="http://www.w3.org/2000/svg" xmlns:xlink="http://www.w3.org/1999/xlink">
 <metadata>
  <rdf:RDF xmlns:cc="http://creativecommons.org/ns#" xmlns:dc="http://purl.org/dc/elements/1.1/" xmlns:rdf="http://www.w3.org/1999/02/22-rdf-syntax-ns#">
   <cc:Work>
    <dc:type rdf:resource="http://purl.org/dc/dcmitype/StillImage"/>
    <dc:date>2022-11-11T20:47:11.544287</dc:date>
    <dc:format>image/svg+xml</dc:format>
    <dc:creator>
     <cc:Agent>
      <dc:title>Matplotlib v3.3.4, https://matplotlib.org/</dc:title>
     </cc:Agent>
    </dc:creator>
   </cc:Work>
  </rdf:RDF>
 </metadata>
 <defs>
  <style type="text/css">*{stroke-linecap:butt;stroke-linejoin:round;}</style>
 </defs>
 <g id="figure_1">
  <g id="patch_1">
   <path d="M 0 329.30975 
L 405.419375 329.30975 
L 405.419375 0 
L 0 0 
z
" style="fill:#ffffff;"/>
  </g>
  <g id="axes_1">
   <g id="patch_2">
    <path d="M 41.099375 289.311 
L 398.219375 289.311 
L 398.219375 23.199 
L 41.099375 23.199 
z
" style="fill:#ffffff;"/>
   </g>
   <g id="matplotlib.axis_1">
    <g id="xtick_1">
     <g id="line2d_1">
      <path clip-path="url(#pc152c0c1fe)" d="M 105.293984 289.311 
L 105.293984 23.199 
" style="fill:none;stroke:#b0b0b0;stroke-linecap:square;stroke-width:0.8;"/>
     </g>
     <g id="line2d_2">
      <defs>
       <path d="M 0 0 
L 0 3.5 
" id="m9fdccdfe97" style="stroke:#000000;stroke-width:0.8;"/>
      </defs>
      <g>
       <use style="stroke:#000000;stroke-width:0.8;" x="105.293984" xlink:href="#m9fdccdfe97" y="289.311"/>
      </g>
     </g>
     <g id="text_1">
      <!-- 0.05 -->
      <g transform="translate(94.793984 304.6435)scale(0.12 -0.12)">
       <defs>
        <path d="M 3.609375 32.71875 
Q 3.609375 44.046875 7.03125 52.21875 
Q 10.453125 60.40625 16.109375 64.40625 
Q 20.515625 67.578125 25.203125 67.578125 
Q 32.8125 67.578125 38.875 59.8125 
Q 46.4375 50.203125 46.4375 33.734375 
Q 46.4375 22.21875 43.109375 14.15625 
Q 39.796875 6.109375 34.640625 2.46875 
Q 29.5 -1.171875 24.703125 -1.171875 
Q 15.234375 -1.171875 8.9375 10.015625 
Q 3.609375 19.4375 3.609375 32.71875 
z
M 13.1875 31.5 
Q 13.1875 17.828125 16.546875 9.1875 
Q 19.34375 1.90625 24.859375 1.90625 
Q 27.484375 1.90625 30.3125 4.265625 
Q 33.15625 6.640625 34.625 12.203125 
Q 36.859375 20.609375 36.859375 35.890625 
Q 36.859375 47.21875 34.515625 54.78125 
Q 32.765625 60.40625 29.984375 62.75 
Q 27.984375 64.359375 25.140625 64.359375 
Q 21.828125 64.359375 19.234375 61.375 
Q 15.71875 57.328125 14.453125 48.625 
Q 13.1875 39.9375 13.1875 31.5 
z
" id="TimesNewRomanPSMT-48"/>
        <path d="M 12.5 9.46875 
Q 14.796875 9.46875 16.359375 7.875 
Q 17.921875 6.296875 17.921875 4.046875 
Q 17.921875 1.8125 16.328125 0.21875 
Q 14.75 -1.375 12.5 -1.375 
Q 10.25 -1.375 8.65625 0.21875 
Q 7.078125 1.8125 7.078125 4.046875 
Q 7.078125 6.34375 8.65625 7.90625 
Q 10.25 9.46875 12.5 9.46875 
z
" id="TimesNewRomanPSMT-46"/>
        <path d="M 43.40625 66.21875 
L 39.59375 57.90625 
L 19.671875 57.90625 
L 15.328125 49.03125 
Q 28.265625 47.125 35.84375 39.40625 
Q 42.328125 32.765625 42.328125 23.78125 
Q 42.328125 18.5625 40.203125 14.109375 
Q 38.09375 9.671875 34.859375 6.546875 
Q 31.640625 3.421875 27.6875 1.515625 
Q 22.078125 -1.171875 16.15625 -1.171875 
Q 10.203125 -1.171875 7.484375 0.84375 
Q 4.78125 2.875 4.78125 5.328125 
Q 4.78125 6.6875 5.90625 7.734375 
Q 7.03125 8.796875 8.734375 8.796875 
Q 10.015625 8.796875 10.96875 8.40625 
Q 11.921875 8.015625 14.203125 6.390625 
Q 17.875 3.859375 21.625 3.859375 
Q 27.34375 3.859375 31.65625 8.171875 
Q 35.984375 12.5 35.984375 18.703125 
Q 35.984375 24.703125 32.125 29.90625 
Q 28.265625 35.109375 21.484375 37.9375 
Q 16.15625 40.140625 6.984375 40.484375 
L 19.671875 66.21875 
z
" id="TimesNewRomanPSMT-53"/>
       </defs>
       <use xlink:href="#TimesNewRomanPSMT-48"/>
       <use x="50" xlink:href="#TimesNewRomanPSMT-46"/>
       <use x="75" xlink:href="#TimesNewRomanPSMT-48"/>
       <use x="125" xlink:href="#TimesNewRomanPSMT-53"/>
      </g>
     </g>
    </g>
    <g id="xtick_2">
     <g id="line2d_3">
      <path clip-path="url(#pc152c0c1fe)" d="M 180.229167 289.311 
L 180.229167 23.199 
" style="fill:none;stroke:#b0b0b0;stroke-linecap:square;stroke-width:0.8;"/>
     </g>
     <g id="line2d_4">
      <g>
       <use style="stroke:#000000;stroke-width:0.8;" x="180.229167" xlink:href="#m9fdccdfe97" y="289.311"/>
      </g>
     </g>
     <g id="text_2">
      <!-- 0.10 -->
      <g transform="translate(169.729167 304.6435)scale(0.12 -0.12)">
       <defs>
        <path d="M 11.71875 59.71875 
L 27.828125 67.578125 
L 29.4375 67.578125 
L 29.4375 11.671875 
Q 29.4375 6.109375 29.90625 4.734375 
Q 30.375 3.375 31.828125 2.640625 
Q 33.296875 1.90625 37.796875 1.8125 
L 37.796875 0 
L 12.890625 0 
L 12.890625 1.8125 
Q 17.578125 1.90625 18.9375 2.609375 
Q 20.3125 3.328125 20.84375 4.515625 
Q 21.390625 5.71875 21.390625 11.671875 
L 21.390625 47.40625 
Q 21.390625 54.640625 20.90625 56.6875 
Q 20.5625 58.25 19.65625 58.984375 
Q 18.75 59.71875 17.484375 59.71875 
Q 15.671875 59.71875 12.453125 58.203125 
z
" id="TimesNewRomanPSMT-49"/>
       </defs>
       <use xlink:href="#TimesNewRomanPSMT-48"/>
       <use x="50" xlink:href="#TimesNewRomanPSMT-46"/>
       <use x="75" xlink:href="#TimesNewRomanPSMT-49"/>
       <use x="125" xlink:href="#TimesNewRomanPSMT-48"/>
      </g>
     </g>
    </g>
    <g id="xtick_3">
     <g id="line2d_5">
      <path clip-path="url(#pc152c0c1fe)" d="M 255.16435 289.311 
L 255.16435 23.199 
" style="fill:none;stroke:#b0b0b0;stroke-linecap:square;stroke-width:0.8;"/>
     </g>
     <g id="line2d_6">
      <g>
       <use style="stroke:#000000;stroke-width:0.8;" x="255.16435" xlink:href="#m9fdccdfe97" y="289.311"/>
      </g>
     </g>
     <g id="text_3">
      <!-- 0.15 -->
      <g transform="translate(244.66435 304.6435)scale(0.12 -0.12)">
       <use xlink:href="#TimesNewRomanPSMT-48"/>
       <use x="50" xlink:href="#TimesNewRomanPSMT-46"/>
       <use x="75" xlink:href="#TimesNewRomanPSMT-49"/>
       <use x="125" xlink:href="#TimesNewRomanPSMT-53"/>
      </g>
     </g>
    </g>
    <g id="xtick_4">
     <g id="line2d_7">
      <path clip-path="url(#pc152c0c1fe)" d="M 330.099532 289.311 
L 330.099532 23.199 
" style="fill:none;stroke:#b0b0b0;stroke-linecap:square;stroke-width:0.8;"/>
     </g>
     <g id="line2d_8">
      <g>
       <use style="stroke:#000000;stroke-width:0.8;" x="330.099532" xlink:href="#m9fdccdfe97" y="289.311"/>
      </g>
     </g>
     <g id="text_4">
      <!-- 0.20 -->
      <g transform="translate(319.599532 304.6435)scale(0.12 -0.12)">
       <defs>
        <path d="M 45.84375 12.75 
L 41.21875 0 
L 2.15625 0 
L 2.15625 1.8125 
Q 19.390625 17.53125 26.421875 27.484375 
Q 33.453125 37.453125 33.453125 45.703125 
Q 33.453125 52 29.59375 56.046875 
Q 25.734375 60.109375 20.359375 60.109375 
Q 15.484375 60.109375 11.59375 57.25 
Q 7.71875 54.390625 5.859375 48.875 
L 4.046875 48.875 
Q 5.28125 57.90625 10.328125 62.734375 
Q 15.375 67.578125 22.953125 67.578125 
Q 31 67.578125 36.390625 62.40625 
Q 41.796875 57.234375 41.796875 50.203125 
Q 41.796875 45.171875 39.453125 40.140625 
Q 35.84375 32.234375 27.734375 23.390625 
Q 15.578125 10.109375 12.546875 7.375 
L 29.828125 7.375 
Q 35.109375 7.375 37.234375 7.765625 
Q 39.359375 8.15625 41.0625 9.34375 
Q 42.78125 10.546875 44.046875 12.75 
z
" id="TimesNewRomanPSMT-50"/>
       </defs>
       <use xlink:href="#TimesNewRomanPSMT-48"/>
       <use x="50" xlink:href="#TimesNewRomanPSMT-46"/>
       <use x="75" xlink:href="#TimesNewRomanPSMT-50"/>
       <use x="125" xlink:href="#TimesNewRomanPSMT-48"/>
      </g>
     </g>
    </g>
    <g id="text_5">
     <!-- BPP -->
     <g transform="translate(208.984063 319.542875)scale(0.12 -0.12)">
      <defs>
       <path d="M 46.1875 33.796875 
Q 53.078125 32.328125 56.5 29.109375 
Q 61.234375 24.609375 61.234375 18.109375 
Q 61.234375 13.1875 58.109375 8.671875 
Q 54.984375 4.15625 49.53125 2.078125 
Q 44.09375 0 32.90625 0 
L 1.65625 0 
L 1.65625 1.8125 
L 4.15625 1.8125 
Q 8.296875 1.8125 10.109375 4.4375 
Q 11.234375 6.15625 11.234375 11.71875 
L 11.234375 54.5 
Q 11.234375 60.640625 9.8125 62.25 
Q 7.90625 64.40625 4.15625 64.40625 
L 1.65625 64.40625 
L 1.65625 66.21875 
L 30.28125 66.21875 
Q 38.28125 66.21875 43.109375 65.046875 
Q 50.4375 63.28125 54.296875 58.8125 
Q 58.15625 54.34375 58.15625 48.53125 
Q 58.15625 43.5625 55.125 39.625 
Q 52.09375 35.6875 46.1875 33.796875 
z
M 20.609375 36.421875 
Q 22.40625 36.078125 24.71875 35.90625 
Q 27.046875 35.75 29.828125 35.75 
Q 36.96875 35.75 40.546875 37.28125 
Q 44.140625 38.8125 46.046875 41.984375 
Q 47.953125 45.171875 47.953125 48.921875 
Q 47.953125 54.734375 43.21875 58.828125 
Q 38.484375 62.9375 29.390625 62.9375 
Q 24.515625 62.9375 20.609375 61.859375 
z
M 20.609375 4.78125 
Q 26.265625 3.46875 31.78125 3.46875 
Q 40.625 3.46875 45.265625 7.4375 
Q 49.90625 11.421875 49.90625 17.28125 
Q 49.90625 21.140625 47.796875 24.703125 
Q 45.703125 28.265625 40.96875 30.3125 
Q 36.234375 32.375 29.25 32.375 
Q 26.21875 32.375 24.0625 32.265625 
Q 21.921875 32.171875 20.609375 31.9375 
z
" id="TimesNewRomanPSMT-66"/>
       <path d="M 20.515625 31 
L 20.515625 11.71875 
Q 20.515625 5.46875 21.875 3.953125 
Q 23.734375 1.8125 27.484375 1.8125 
L 30.03125 1.8125 
L 30.03125 0 
L 1.65625 0 
L 1.65625 1.8125 
L 4.15625 1.8125 
Q 8.34375 1.8125 10.15625 4.546875 
Q 11.140625 6.0625 11.140625 11.71875 
L 11.140625 54.5 
Q 11.140625 60.75 9.8125 62.25 
Q 7.90625 64.40625 4.15625 64.40625 
L 1.65625 64.40625 
L 1.65625 66.21875 
L 25.921875 66.21875 
Q 34.8125 66.21875 39.9375 64.375 
Q 45.0625 62.546875 48.578125 58.203125 
Q 52.09375 53.859375 52.09375 47.90625 
Q 52.09375 39.796875 46.75 34.71875 
Q 41.40625 29.640625 31.640625 29.640625 
Q 29.25 29.640625 26.46875 29.984375 
Q 23.6875 30.328125 20.515625 31 
z
M 20.515625 33.796875 
Q 23.09375 33.296875 25.09375 33.046875 
Q 27.09375 32.8125 28.515625 32.8125 
Q 33.59375 32.8125 37.28125 36.734375 
Q 40.96875 40.671875 40.96875 46.921875 
Q 40.96875 51.21875 39.203125 54.90625 
Q 37.453125 58.59375 34.21875 60.421875 
Q 31 62.25 26.90625 62.25 
Q 24.421875 62.25 20.515625 61.328125 
z
" id="TimesNewRomanPSMT-80"/>
      </defs>
      <use xlink:href="#TimesNewRomanPSMT-66"/>
      <use x="66.699219" xlink:href="#TimesNewRomanPSMT-80"/>
      <use x="122.314453" xlink:href="#TimesNewRomanPSMT-80"/>
     </g>
    </g>
   </g>
   <g id="matplotlib.axis_2">
    <g id="ytick_1">
     <g id="line2d_9">
      <path clip-path="url(#pc152c0c1fe)" d="M 41.099375 261.297776 
L 398.219375 261.297776 
" style="fill:none;stroke:#b0b0b0;stroke-linecap:square;stroke-width:0.8;"/>
     </g>
     <g id="line2d_10">
      <defs>
       <path d="M 0 0 
L -3.5 0 
" id="m96596ea1a7" style="stroke:#000000;stroke-width:0.8;"/>
      </defs>
      <g>
       <use style="stroke:#000000;stroke-width:0.8;" x="41.099375" xlink:href="#m96596ea1a7" y="261.297776"/>
      </g>
     </g>
     <g id="text_6">
      <!-- 38 -->
      <g transform="translate(22.099375 265.464026)scale(0.12 -0.12)">
       <defs>
        <path d="M 5.078125 53.609375 
Q 7.90625 60.296875 12.21875 63.9375 
Q 16.546875 67.578125 23 67.578125 
Q 30.953125 67.578125 35.203125 62.40625 
Q 38.421875 58.546875 38.421875 54.15625 
Q 38.421875 46.921875 29.34375 39.203125 
Q 35.453125 36.8125 38.578125 32.375 
Q 41.703125 27.9375 41.703125 21.921875 
Q 41.703125 13.328125 36.234375 7.03125 
Q 29.109375 -1.171875 15.578125 -1.171875 
Q 8.890625 -1.171875 6.46875 0.484375 
Q 4.046875 2.15625 4.046875 4.046875 
Q 4.046875 5.46875 5.1875 6.546875 
Q 6.34375 7.625 7.953125 7.625 
Q 9.1875 7.625 10.453125 7.234375 
Q 11.28125 6.984375 14.203125 5.4375 
Q 17.140625 3.90625 18.265625 3.609375 
Q 20.0625 3.078125 22.125 3.078125 
Q 27.09375 3.078125 30.78125 6.9375 
Q 34.46875 10.796875 34.46875 16.0625 
Q 34.46875 19.921875 32.765625 23.578125 
Q 31.5 26.3125 29.984375 27.734375 
Q 27.875 29.6875 24.21875 31.265625 
Q 20.5625 32.859375 16.75 32.859375 
L 15.1875 32.859375 
L 15.1875 34.328125 
Q 19.046875 34.8125 22.921875 37.109375 
Q 26.8125 39.40625 28.5625 42.625 
Q 30.328125 45.84375 30.328125 49.703125 
Q 30.328125 54.734375 27.171875 57.828125 
Q 24.03125 60.9375 19.34375 60.9375 
Q 11.765625 60.9375 6.6875 52.828125 
z
" id="TimesNewRomanPSMT-51"/>
        <path d="M 19.1875 33.34375 
Q 11.328125 39.796875 9.046875 43.703125 
Q 6.78125 47.609375 6.78125 51.8125 
Q 6.78125 58.25 11.765625 62.90625 
Q 16.75 67.578125 25 67.578125 
Q 33.015625 67.578125 37.890625 63.234375 
Q 42.78125 58.890625 42.78125 53.328125 
Q 42.78125 49.609375 40.140625 45.75 
Q 37.5 41.890625 29.15625 36.671875 
Q 37.75 30.03125 40.53125 26.21875 
Q 44.234375 21.234375 44.234375 15.71875 
Q 44.234375 8.734375 38.90625 3.78125 
Q 33.59375 -1.171875 24.953125 -1.171875 
Q 15.53125 -1.171875 10.25 4.734375 
Q 6.0625 9.46875 6.0625 15.09375 
Q 6.0625 19.484375 9.015625 23.796875 
Q 11.96875 28.125 19.1875 33.34375 
z
M 26.859375 38.578125 
Q 32.71875 43.84375 34.28125 46.890625 
Q 35.84375 49.953125 35.84375 53.8125 
Q 35.84375 58.9375 32.953125 61.84375 
Q 30.078125 64.75 25.09375 64.75 
Q 20.125 64.75 17 61.859375 
Q 13.875 58.984375 13.875 55.125 
Q 13.875 52.59375 15.15625 50.046875 
Q 16.453125 47.515625 18.84375 45.21875 
z
M 21.484375 31.5 
Q 17.4375 28.078125 15.484375 24.046875 
Q 13.53125 20.015625 13.53125 15.328125 
Q 13.53125 9.03125 16.96875 5.25 
Q 20.40625 1.46875 25.734375 1.46875 
Q 31 1.46875 34.171875 4.4375 
Q 37.359375 7.421875 37.359375 11.671875 
Q 37.359375 15.1875 35.5 17.96875 
Q 32.03125 23.140625 21.484375 31.5 
z
" id="TimesNewRomanPSMT-56"/>
       </defs>
       <use xlink:href="#TimesNewRomanPSMT-51"/>
       <use x="50" xlink:href="#TimesNewRomanPSMT-56"/>
      </g>
     </g>
    </g>
    <g id="ytick_2">
     <g id="line2d_11">
      <path clip-path="url(#pc152c0c1fe)" d="M 41.099375 223.207649 
L 398.219375 223.207649 
" style="fill:none;stroke:#b0b0b0;stroke-linecap:square;stroke-width:0.8;"/>
     </g>
     <g id="line2d_12">
      <g>
       <use style="stroke:#000000;stroke-width:0.8;" x="41.099375" xlink:href="#m96596ea1a7" y="223.207649"/>
      </g>
     </g>
     <g id="text_7">
      <!-- 39 -->
      <g transform="translate(22.099375 227.373899)scale(0.12 -0.12)">
       <defs>
        <path d="M 5.28125 -1.375 
L 5.28125 0.4375 
Q 11.625 0.53125 17.09375 3.390625 
Q 22.5625 6.25 27.65625 13.375 
Q 32.765625 20.515625 34.765625 29.046875 
Q 27.09375 24.125 20.90625 24.125 
Q 13.921875 24.125 8.9375 29.515625 
Q 3.953125 34.90625 3.953125 43.84375 
Q 3.953125 52.546875 8.9375 59.328125 
Q 14.9375 67.578125 24.609375 67.578125 
Q 32.765625 67.578125 38.578125 60.84375 
Q 45.703125 52.484375 45.703125 40.234375 
Q 45.703125 29.203125 40.28125 19.65625 
Q 34.859375 10.109375 25.203125 3.8125 
Q 17.328125 -1.375 8.0625 -1.375 
z
M 35.546875 32.671875 
Q 36.421875 39.015625 36.421875 42.828125 
Q 36.421875 47.5625 34.8125 53.046875 
Q 33.203125 58.546875 30.25 61.46875 
Q 27.296875 64.40625 23.53125 64.40625 
Q 19.1875 64.40625 15.90625 60.5 
Q 12.640625 56.59375 12.640625 48.875 
Q 12.640625 38.578125 17 32.765625 
Q 20.171875 28.5625 24.8125 28.5625 
Q 27.046875 28.5625 30.125 29.640625 
Q 33.203125 30.71875 35.546875 32.671875 
z
" id="TimesNewRomanPSMT-57"/>
       </defs>
       <use xlink:href="#TimesNewRomanPSMT-51"/>
       <use x="50" xlink:href="#TimesNewRomanPSMT-57"/>
      </g>
     </g>
    </g>
    <g id="ytick_3">
     <g id="line2d_13">
      <path clip-path="url(#pc152c0c1fe)" d="M 41.099375 185.117523 
L 398.219375 185.117523 
" style="fill:none;stroke:#b0b0b0;stroke-linecap:square;stroke-width:0.8;"/>
     </g>
     <g id="line2d_14">
      <g>
       <use style="stroke:#000000;stroke-width:0.8;" x="41.099375" xlink:href="#m96596ea1a7" y="185.117523"/>
      </g>
     </g>
     <g id="text_8">
      <!-- 40 -->
      <g transform="translate(22.099375 189.283773)scale(0.12 -0.12)">
       <defs>
        <path d="M 46.53125 24.421875 
L 46.53125 17.484375 
L 37.640625 17.484375 
L 37.640625 0 
L 29.59375 0 
L 29.59375 17.484375 
L 1.5625 17.484375 
L 1.5625 23.734375 
L 32.28125 67.578125 
L 37.640625 67.578125 
L 37.640625 24.421875 
z
M 29.59375 24.421875 
L 29.59375 57.28125 
L 6.34375 24.421875 
z
" id="TimesNewRomanPSMT-52"/>
       </defs>
       <use xlink:href="#TimesNewRomanPSMT-52"/>
       <use x="50" xlink:href="#TimesNewRomanPSMT-48"/>
      </g>
     </g>
    </g>
    <g id="ytick_4">
     <g id="line2d_15">
      <path clip-path="url(#pc152c0c1fe)" d="M 41.099375 147.027396 
L 398.219375 147.027396 
" style="fill:none;stroke:#b0b0b0;stroke-linecap:square;stroke-width:0.8;"/>
     </g>
     <g id="line2d_16">
      <g>
       <use style="stroke:#000000;stroke-width:0.8;" x="41.099375" xlink:href="#m96596ea1a7" y="147.027396"/>
      </g>
     </g>
     <g id="text_9">
      <!-- 41 -->
      <g transform="translate(22.099375 151.193646)scale(0.12 -0.12)">
       <use xlink:href="#TimesNewRomanPSMT-52"/>
       <use x="50" xlink:href="#TimesNewRomanPSMT-49"/>
      </g>
     </g>
    </g>
    <g id="ytick_5">
     <g id="line2d_17">
      <path clip-path="url(#pc152c0c1fe)" d="M 41.099375 108.93727 
L 398.219375 108.93727 
" style="fill:none;stroke:#b0b0b0;stroke-linecap:square;stroke-width:0.8;"/>
     </g>
     <g id="line2d_18">
      <g>
       <use style="stroke:#000000;stroke-width:0.8;" x="41.099375" xlink:href="#m96596ea1a7" y="108.93727"/>
      </g>
     </g>
     <g id="text_10">
      <!-- 42 -->
      <g transform="translate(22.099375 113.10352)scale(0.12 -0.12)">
       <use xlink:href="#TimesNewRomanPSMT-52"/>
       <use x="50" xlink:href="#TimesNewRomanPSMT-50"/>
      </g>
     </g>
    </g>
    <g id="ytick_6">
     <g id="line2d_19">
      <path clip-path="url(#pc152c0c1fe)" d="M 41.099375 70.847143 
L 398.219375 70.847143 
" style="fill:none;stroke:#b0b0b0;stroke-linecap:square;stroke-width:0.8;"/>
     </g>
     <g id="line2d_20">
      <g>
       <use style="stroke:#000000;stroke-width:0.8;" x="41.099375" xlink:href="#m96596ea1a7" y="70.847143"/>
      </g>
     </g>
     <g id="text_11">
      <!-- 43 -->
      <g transform="translate(22.099375 75.013393)scale(0.12 -0.12)">
       <use xlink:href="#TimesNewRomanPSMT-52"/>
       <use x="50" xlink:href="#TimesNewRomanPSMT-51"/>
      </g>
     </g>
    </g>
    <g id="ytick_7">
     <g id="line2d_21">
      <path clip-path="url(#pc152c0c1fe)" d="M 41.099375 32.757017 
L 398.219375 32.757017 
" style="fill:none;stroke:#b0b0b0;stroke-linecap:square;stroke-width:0.8;"/>
     </g>
     <g id="line2d_22">
      <g>
       <use style="stroke:#000000;stroke-width:0.8;" x="41.099375" xlink:href="#m96596ea1a7" y="32.757017"/>
      </g>
     </g>
     <g id="text_12">
      <!-- 44 -->
      <g transform="translate(22.099375 36.923267)scale(0.12 -0.12)">
       <use xlink:href="#TimesNewRomanPSMT-52"/>
       <use x="50" xlink:href="#TimesNewRomanPSMT-52"/>
      </g>
     </g>
    </g>
    <g id="text_13">
     <!-- EWPSNR (dB) -->
     <g transform="translate(15.5325 193.089375)rotate(-90)scale(0.12 -0.12)">
      <defs>
       <path d="M 20.90625 62.59375 
L 20.90625 36.421875 
L 35.453125 36.421875 
Q 41.109375 36.421875 43.015625 38.140625 
Q 45.5625 40.375 45.84375 46.046875 
L 47.65625 46.046875 
L 47.65625 23 
L 45.84375 23 
Q 45.171875 27.828125 44.484375 29.203125 
Q 43.609375 30.90625 41.59375 31.875 
Q 39.59375 32.859375 35.453125 32.859375 
L 20.90625 32.859375 
L 20.90625 11.03125 
Q 20.90625 6.640625 21.296875 5.6875 
Q 21.6875 4.734375 22.65625 4.171875 
Q 23.640625 3.609375 26.375 3.609375 
L 37.59375 3.609375 
Q 43.21875 3.609375 45.75 4.390625 
Q 48.296875 5.171875 50.640625 7.46875 
Q 53.65625 10.5 56.84375 16.609375 
L 58.796875 16.609375 
L 53.078125 0 
L 2.046875 0 
L 2.046875 1.8125 
L 4.390625 1.8125 
Q 6.734375 1.8125 8.84375 2.9375 
Q 10.40625 3.71875 10.96875 5.28125 
Q 11.53125 6.84375 11.53125 11.671875 
L 11.53125 54.6875 
Q 11.53125 60.984375 10.25 62.453125 
Q 8.5 64.40625 4.390625 64.40625 
L 2.046875 64.40625 
L 2.046875 66.21875 
L 53.078125 66.21875 
L 53.8125 51.703125 
L 51.90625 51.703125 
Q 50.875 56.9375 49.625 58.890625 
Q 48.390625 60.84375 45.953125 61.859375 
Q 44 62.59375 39.0625 62.59375 
z
" id="TimesNewRomanPSMT-69"/>
       <path d="M 93.609375 66.21875 
L 93.609375 64.40625 
Q 91.015625 64.40625 89.40625 63.46875 
Q 87.796875 62.546875 86.328125 60.015625 
Q 85.359375 58.296875 83.25 51.859375 
L 64.796875 -1.515625 
L 62.84375 -1.515625 
L 47.75 40.828125 
L 32.765625 -1.515625 
L 31 -1.515625 
L 11.328125 53.46875 
Q 9.125 59.625 8.546875 60.75 
Q 7.5625 62.59375 5.875 63.5 
Q 4.203125 64.40625 1.3125 64.40625 
L 1.3125 66.21875 
L 25.828125 66.21875 
L 25.828125 64.40625 
L 24.65625 64.40625 
Q 22.078125 64.40625 20.703125 63.234375 
Q 19.34375 62.0625 19.34375 60.40625 
Q 19.34375 58.6875 21.484375 52.546875 
L 34.515625 15.375 
L 45.515625 46.96875 
L 43.5625 52.546875 
L 42 56.984375 
Q 40.96875 59.421875 39.703125 61.28125 
Q 39.0625 62.203125 38.140625 62.84375 
Q 36.921875 63.71875 35.6875 64.109375 
Q 34.765625 64.40625 32.765625 64.40625 
L 32.765625 66.21875 
L 58.546875 66.21875 
L 58.546875 64.40625 
L 56.78125 64.40625 
Q 54.046875 64.40625 52.78125 63.234375 
Q 51.515625 62.0625 51.515625 60.0625 
Q 51.515625 57.5625 53.71875 51.375 
L 66.40625 15.375 
L 79 51.859375 
Q 81.15625 57.90625 81.15625 60.25 
Q 81.15625 61.375 80.4375 62.34375 
Q 79.734375 63.328125 78.65625 63.71875 
Q 76.8125 64.40625 73.828125 64.40625 
L 73.828125 66.21875 
z
" id="TimesNewRomanPSMT-87"/>
       <path d="M 45.84375 67.71875 
L 45.84375 44.828125 
L 44.046875 44.828125 
Q 43.171875 51.421875 40.890625 55.328125 
Q 38.625 59.234375 34.421875 61.515625 
Q 30.21875 63.8125 25.734375 63.8125 
Q 20.65625 63.8125 17.328125 60.71875 
Q 14.015625 57.625 14.015625 53.65625 
Q 14.015625 50.640625 16.109375 48.140625 
Q 19.140625 44.484375 30.515625 38.375 
Q 39.796875 33.40625 43.1875 30.734375 
Q 46.578125 28.078125 48.40625 24.453125 
Q 50.25 20.84375 50.25 16.890625 
Q 50.25 9.375 44.40625 3.921875 
Q 38.578125 -1.515625 29.390625 -1.515625 
Q 26.515625 -1.515625 23.96875 -1.078125 
Q 22.46875 -0.828125 17.703125 0.703125 
Q 12.9375 2.25 11.671875 2.25 
Q 10.453125 2.25 9.734375 1.515625 
Q 9.03125 0.78125 8.6875 -1.515625 
L 6.890625 -1.515625 
L 6.890625 21.1875 
L 8.6875 21.1875 
Q 9.96875 14.0625 12.109375 10.515625 
Q 14.265625 6.984375 18.671875 4.640625 
Q 23.09375 2.296875 28.375 2.296875 
Q 34.46875 2.296875 38 5.515625 
Q 41.546875 8.734375 41.546875 13.140625 
Q 41.546875 15.578125 40.203125 18.0625 
Q 38.875 20.5625 36.03125 22.703125 
Q 34.125 24.171875 25.625 28.921875 
Q 17.140625 33.6875 13.546875 36.515625 
Q 9.96875 39.359375 8.109375 42.765625 
Q 6.25 46.1875 6.25 50.296875 
Q 6.25 57.421875 11.71875 62.5625 
Q 17.1875 67.71875 25.640625 67.71875 
Q 30.90625 67.71875 36.8125 65.140625 
Q 39.546875 63.921875 40.671875 63.921875 
Q 41.9375 63.921875 42.75 64.671875 
Q 43.5625 65.4375 44.046875 67.71875 
z
" id="TimesNewRomanPSMT-83"/>
       <path d="M -1.3125 66.21875 
L 16.65625 66.21875 
L 57.125 16.546875 
L 57.125 54.734375 
Q 57.125 60.84375 55.765625 62.359375 
Q 53.953125 64.40625 50.046875 64.40625 
L 47.75 64.40625 
L 47.75 66.21875 
L 70.796875 66.21875 
L 70.796875 64.40625 
L 68.453125 64.40625 
Q 64.265625 64.40625 62.5 61.859375 
Q 61.421875 60.296875 61.421875 54.734375 
L 61.421875 -1.078125 
L 59.671875 -1.078125 
L 16.015625 52.25 
L 16.015625 11.46875 
Q 16.015625 5.375 17.328125 3.859375 
Q 19.1875 1.8125 23.046875 1.8125 
L 25.390625 1.8125 
L 25.390625 0 
L 2.34375 0 
L 2.34375 1.8125 
L 4.640625 1.8125 
Q 8.890625 1.8125 10.640625 4.34375 
Q 11.71875 5.90625 11.71875 11.46875 
L 11.71875 57.515625 
Q 8.84375 60.890625 7.34375 61.953125 
Q 5.859375 63.03125 2.984375 63.96875 
Q 1.5625 64.40625 -1.3125 64.40625 
z
" id="TimesNewRomanPSMT-78"/>
       <path d="M 67.578125 0 
L 49.90625 0 
L 27.484375 30.953125 
Q 25 30.859375 23.4375 30.859375 
Q 22.796875 30.859375 22.0625 30.875 
Q 21.34375 30.90625 20.5625 30.953125 
L 20.5625 11.71875 
Q 20.5625 5.46875 21.921875 3.953125 
Q 23.78125 1.8125 27.484375 1.8125 
L 30.078125 1.8125 
L 30.078125 0 
L 1.703125 0 
L 1.703125 1.8125 
L 4.203125 1.8125 
Q 8.40625 1.8125 10.203125 4.546875 
Q 11.234375 6.0625 11.234375 11.71875 
L 11.234375 54.5 
Q 11.234375 60.75 9.859375 62.25 
Q 7.953125 64.40625 4.203125 64.40625 
L 1.703125 64.40625 
L 1.703125 66.21875 
L 25.828125 66.21875 
Q 36.375 66.21875 41.375 64.671875 
Q 46.390625 63.140625 49.875 59.015625 
Q 53.375 54.890625 53.375 49.171875 
Q 53.375 43.0625 49.390625 38.5625 
Q 45.40625 34.078125 37.0625 32.234375 
L 50.734375 13.234375 
Q 55.421875 6.6875 58.78125 4.53125 
Q 62.15625 2.390625 67.578125 1.8125 
z
M 20.5625 34.03125 
Q 21.484375 34.03125 22.171875 34 
Q 22.859375 33.984375 23.296875 33.984375 
Q 32.765625 33.984375 37.578125 38.078125 
Q 42.390625 42.1875 42.390625 48.53125 
Q 42.390625 54.734375 38.5 58.609375 
Q 34.625 62.5 28.21875 62.5 
Q 25.390625 62.5 20.5625 61.578125 
z
" id="TimesNewRomanPSMT-82"/>
       <path id="TimesNewRomanPSMT-32"/>
       <path d="M 31.0625 -19.578125 
L 31.0625 -21.390625 
Q 23.6875 -17.671875 18.75 -12.703125 
Q 11.71875 -5.609375 7.90625 4 
Q 4.109375 13.625 4.109375 23.96875 
Q 4.109375 39.109375 11.578125 51.578125 
Q 19.046875 64.0625 31.0625 69.4375 
L 31.0625 67.390625 
Q 25.046875 64.0625 21.1875 58.296875 
Q 17.328125 52.546875 15.421875 43.703125 
Q 13.53125 34.859375 13.53125 25.25 
Q 13.53125 14.796875 15.140625 6.25 
Q 16.40625 -0.484375 18.203125 -4.5625 
Q 20.015625 -8.640625 23.0625 -12.390625 
Q 26.125 -16.15625 31.0625 -19.578125 
z
" id="TimesNewRomanPSMT-40"/>
       <path d="M 34.71875 5.03125 
Q 31.453125 1.609375 28.328125 0.109375 
Q 25.203125 -1.375 21.578125 -1.375 
Q 14.265625 -1.375 8.796875 4.75 
Q 3.328125 10.890625 3.328125 20.515625 
Q 3.328125 30.125 9.375 38.109375 
Q 15.4375 46.09375 24.953125 46.09375 
Q 30.859375 46.09375 34.71875 42.328125 
L 34.71875 50.59375 
Q 34.71875 58.25 34.34375 60 
Q 33.984375 61.765625 33.203125 62.390625 
Q 32.421875 63.03125 31.25 63.03125 
Q 29.984375 63.03125 27.875 62.25 
L 27.25 63.96875 
L 40.578125 69.4375 
L 42.78125 69.4375 
L 42.78125 17.71875 
Q 42.78125 9.859375 43.140625 8.125 
Q 43.5 6.390625 44.3125 5.703125 
Q 45.125 5.03125 46.1875 5.03125 
Q 47.515625 5.03125 49.703125 5.859375 
L 50.25 4.15625 
L 36.96875 -1.375 
L 34.71875 -1.375 
z
M 34.71875 8.453125 
L 34.71875 31.5 
Q 34.421875 34.8125 32.953125 37.546875 
Q 31.5 40.28125 29.078125 41.671875 
Q 26.65625 43.0625 24.359375 43.0625 
Q 20.0625 43.0625 16.703125 39.203125 
Q 12.25 34.125 12.25 24.359375 
Q 12.25 14.5 16.546875 9.25 
Q 20.84375 4 26.125 4 
Q 30.5625 4 34.71875 8.453125 
z
" id="TimesNewRomanPSMT-100"/>
       <path d="M 2.25 67.390625 
L 2.25 69.4375 
Q 9.671875 65.765625 14.59375 60.796875 
Q 21.578125 53.65625 25.390625 44.0625 
Q 29.203125 34.46875 29.203125 24.078125 
Q 29.203125 8.9375 21.75 -3.53125 
Q 14.3125 -16.015625 2.25 -21.390625 
L 2.25 -19.578125 
Q 8.25 -16.21875 12.125 -10.46875 
Q 16.015625 -4.734375 17.890625 4.125 
Q 19.78125 12.984375 19.78125 22.609375 
Q 19.78125 33.015625 18.171875 41.609375 
Q 16.9375 48.34375 15.109375 52.390625 
Q 13.28125 56.453125 10.25 60.203125 
Q 7.234375 63.96875 2.25 67.390625 
z
" id="TimesNewRomanPSMT-41"/>
      </defs>
      <use xlink:href="#TimesNewRomanPSMT-69"/>
      <use x="61.083984" xlink:href="#TimesNewRomanPSMT-87"/>
      <use x="155.46875" xlink:href="#TimesNewRomanPSMT-80"/>
      <use x="211.083984" xlink:href="#TimesNewRomanPSMT-83"/>
      <use x="266.699219" xlink:href="#TimesNewRomanPSMT-78"/>
      <use x="338.916016" xlink:href="#TimesNewRomanPSMT-82"/>
      <use x="405.615234" xlink:href="#TimesNewRomanPSMT-32"/>
      <use x="430.615234" xlink:href="#TimesNewRomanPSMT-40"/>
      <use x="463.916016" xlink:href="#TimesNewRomanPSMT-100"/>
      <use x="513.916016" xlink:href="#TimesNewRomanPSMT-66"/>
      <use x="580.615234" xlink:href="#TimesNewRomanPSMT-41"/>
     </g>
    </g>
   </g>
   <g id="line2d_23">
    <path clip-path="url(#pc152c0c1fe)" d="M 59.883263 199.596037 
L 139.614298 102.367294 
L 217.696758 51.269618 
L 279.593219 35.295 
" style="fill:none;stroke:#ff0000;stroke-linecap:square;stroke-width:2;"/>
    <defs>
     <path d="M 0 3 
C 0.795609 3 1.55874 2.683901 2.12132 2.12132 
C 2.683901 1.55874 3 0.795609 3 0 
C 3 -0.795609 2.683901 -1.55874 2.12132 -2.12132 
C 1.55874 -2.683901 0.795609 -3 0 -3 
C -0.795609 -3 -1.55874 -2.683901 -2.12132 -2.12132 
C -2.683901 -1.55874 -3 -0.795609 -3 0 
C -3 0.795609 -2.683901 1.55874 -2.12132 2.12132 
C -1.55874 2.683901 -0.795609 3 0 3 
z
" id="m285681d680" style="stroke:#ff0000;"/>
    </defs>
    <g clip-path="url(#pc152c0c1fe)">
     <use style="fill:#ff0000;stroke:#ff0000;" x="59.883263" xlink:href="#m285681d680" y="199.596037"/>
     <use style="fill:#ff0000;stroke:#ff0000;" x="139.614298" xlink:href="#m285681d680" y="102.367294"/>
     <use style="fill:#ff0000;stroke:#ff0000;" x="217.696758" xlink:href="#m285681d680" y="51.269618"/>
     <use style="fill:#ff0000;stroke:#ff0000;" x="279.593219" xlink:href="#m285681d680" y="35.295"/>
    </g>
   </g>
   <g id="line2d_24">
    <path clip-path="url(#pc152c0c1fe)" d="M 57.332102 264.703645 
L 79.755688 177.124157 
L 124.602864 112.482154 
L 239.645615 46.797538 
" style="fill:none;stroke:#0000ff;stroke-linecap:square;stroke-width:2;"/>
    <defs>
     <path d="M 0 3 
C 0.795609 3 1.55874 2.683901 2.12132 2.12132 
C 2.683901 1.55874 3 0.795609 3 0 
C 3 -0.795609 2.683901 -1.55874 2.12132 -2.12132 
C 1.55874 -2.683901 0.795609 -3 0 -3 
C -0.795609 -3 -1.55874 -2.683901 -2.12132 -2.12132 
C -2.683901 -1.55874 -3 -0.795609 -3 0 
C -3 0.795609 -2.683901 1.55874 -2.12132 2.12132 
C -1.55874 2.683901 -0.795609 3 0 3 
z
" id="m255dde4755" style="stroke:#0000ff;"/>
    </defs>
    <g clip-path="url(#pc152c0c1fe)">
     <use style="fill:#0000ff;stroke:#0000ff;" x="57.332102" xlink:href="#m255dde4755" y="264.703645"/>
     <use style="fill:#0000ff;stroke:#0000ff;" x="79.755688" xlink:href="#m255dde4755" y="177.124157"/>
     <use style="fill:#0000ff;stroke:#0000ff;" x="124.602864" xlink:href="#m255dde4755" y="112.482154"/>
     <use style="fill:#0000ff;stroke:#0000ff;" x="239.645615" xlink:href="#m255dde4755" y="46.797538"/>
    </g>
   </g>
   <g id="line2d_25">
    <path clip-path="url(#pc152c0c1fe)" d="M 76.830874 270.959323 
L 112.903601 183.379834 
L 185.049055 116.652605 
L 354.688368 67.649797 
" style="fill:none;stroke:#ff69b4;stroke-linecap:square;stroke-width:2;"/>
    <defs>
     <path d="M 0 3 
C 0.795609 3 1.55874 2.683901 2.12132 2.12132 
C 2.683901 1.55874 3 0.795609 3 0 
C 3 -0.795609 2.683901 -1.55874 2.12132 -2.12132 
C 1.55874 -2.683901 0.795609 -3 0 -3 
C -0.795609 -3 -1.55874 -2.683901 -2.12132 -2.12132 
C -2.683901 -1.55874 -3 -0.795609 -3 0 
C -3 0.795609 -2.683901 1.55874 -2.12132 2.12132 
C -1.55874 2.683901 -0.795609 3 0 3 
z
" id="m43c22ae879" style="stroke:#ff69b4;"/>
    </defs>
    <g clip-path="url(#pc152c0c1fe)">
     <use style="fill:#ff69b4;stroke:#ff69b4;" x="76.830874" xlink:href="#m43c22ae879" y="270.959323"/>
     <use style="fill:#ff69b4;stroke:#ff69b4;" x="112.903601" xlink:href="#m43c22ae879" y="183.379834"/>
     <use style="fill:#ff69b4;stroke:#ff69b4;" x="185.049055" xlink:href="#m43c22ae879" y="116.652605"/>
     <use style="fill:#ff69b4;stroke:#ff69b4;" x="354.688368" xlink:href="#m43c22ae879" y="67.649797"/>
    </g>
   </g>
   <g id="line2d_26">
    <path clip-path="url(#pc152c0c1fe)" d="M 74.880996 277.215 
L 114.853477 188.592899 
L 190.898687 121.86567 
L 381.986648 72.862862 
" style="fill:none;stroke:#008000;stroke-linecap:square;stroke-width:2;"/>
    <defs>
     <path d="M 0 3 
C 0.795609 3 1.55874 2.683901 2.12132 2.12132 
C 2.683901 1.55874 3 0.795609 3 0 
C 3 -0.795609 2.683901 -1.55874 2.12132 -2.12132 
C 1.55874 -2.683901 0.795609 -3 0 -3 
C -0.795609 -3 -1.55874 -2.683901 -2.12132 -2.12132 
C -2.683901 -1.55874 -3 -0.795609 -3 0 
C -3 0.795609 -2.683901 1.55874 -2.12132 2.12132 
C -1.55874 2.683901 -0.795609 3 0 3 
z
" id="m9e91613607" style="stroke:#008000;"/>
    </defs>
    <g clip-path="url(#pc152c0c1fe)">
     <use style="fill:#008000;stroke:#008000;" x="74.880996" xlink:href="#m9e91613607" y="277.215"/>
     <use style="fill:#008000;stroke:#008000;" x="114.853477" xlink:href="#m9e91613607" y="188.592899"/>
     <use style="fill:#008000;stroke:#008000;" x="190.898687" xlink:href="#m9e91613607" y="121.86567"/>
     <use style="fill:#008000;stroke:#008000;" x="381.986648" xlink:href="#m9e91613607" y="72.862862"/>
    </g>
   </g>
   <g id="line2d_27">
    <path clip-path="url(#pc152c0c1fe)" d="M 76.830874 270.959323 
L 118.753231 181.294609 
L 196.748318 115.609993 
L 378.086893 68.69241 
" style="fill:none;stroke:#696969;stroke-linecap:square;stroke-width:2;"/>
    <defs>
     <path d="M 0 3 
C 0.795609 3 1.55874 2.683901 2.12132 2.12132 
C 2.683901 1.55874 3 0.795609 3 0 
C 3 -0.795609 2.683901 -1.55874 2.12132 -2.12132 
C 1.55874 -2.683901 0.795609 -3 0 -3 
C -0.795609 -3 -1.55874 -2.683901 -2.12132 -2.12132 
C -2.683901 -1.55874 -3 -0.795609 -3 0 
C -3 0.795609 -2.683901 1.55874 -2.12132 2.12132 
C -1.55874 2.683901 -0.795609 3 0 3 
z
" id="m33cfd21dbf" style="stroke:#696969;"/>
    </defs>
    <g clip-path="url(#pc152c0c1fe)">
     <use style="fill:#696969;stroke:#696969;" x="76.830874" xlink:href="#m33cfd21dbf" y="270.959323"/>
     <use style="fill:#696969;stroke:#696969;" x="118.753231" xlink:href="#m33cfd21dbf" y="181.294609"/>
     <use style="fill:#696969;stroke:#696969;" x="196.748318" xlink:href="#m33cfd21dbf" y="115.609993"/>
     <use style="fill:#696969;stroke:#696969;" x="378.086893" xlink:href="#m33cfd21dbf" y="68.69241"/>
    </g>
   </g>
   <g id="line2d_28">
    <path clip-path="url(#pc152c0c1fe)" d="M 115.267654 232.044559 
L 148.472981 173.599068 
L 193.879662 117.187591 
L 257.41791 74.698055 
" style="fill:none;stroke:#8a2be2;stroke-linecap:square;stroke-width:2;"/>
    <defs>
     <path d="M 0 3 
C 0.795609 3 1.55874 2.683901 2.12132 2.12132 
C 2.683901 1.55874 3 0.795609 3 0 
C 3 -0.795609 2.683901 -1.55874 2.12132 -2.12132 
C 1.55874 -2.683901 0.795609 -3 0 -3 
C -0.795609 -3 -1.55874 -2.683901 -2.12132 -2.12132 
C -2.683901 -1.55874 -3 -0.795609 -3 0 
C -3 0.795609 -2.683901 1.55874 -2.12132 2.12132 
C -1.55874 2.683901 -0.795609 3 0 3 
z
" id="m3dac4c1793" style="stroke:#8a2be2;"/>
    </defs>
    <g clip-path="url(#pc152c0c1fe)">
     <use style="fill:#8a2be2;stroke:#8a2be2;" x="115.267654" xlink:href="#m3dac4c1793" y="232.044559"/>
     <use style="fill:#8a2be2;stroke:#8a2be2;" x="148.472981" xlink:href="#m3dac4c1793" y="173.599068"/>
     <use style="fill:#8a2be2;stroke:#8a2be2;" x="193.879662" xlink:href="#m3dac4c1793" y="117.187591"/>
     <use style="fill:#8a2be2;stroke:#8a2be2;" x="257.41791" xlink:href="#m3dac4c1793" y="74.698055"/>
    </g>
   </g>
   <g id="line2d_29">
    <path clip-path="url(#pc152c0c1fe)" d="M 87.262863 239.026479 
L 112.870267 152.980883 
L 151.274865 106.922302 
L 205.945294 70.184375 
" style="fill:none;stroke:#00ffff;stroke-linecap:square;stroke-width:2;"/>
    <defs>
     <path d="M 0 3 
C 0.795609 3 1.55874 2.683901 2.12132 2.12132 
C 2.683901 1.55874 3 0.795609 3 0 
C 3 -0.795609 2.683901 -1.55874 2.12132 -2.12132 
C 1.55874 -2.683901 0.795609 -3 0 -3 
C -0.795609 -3 -1.55874 -2.683901 -2.12132 -2.12132 
C -2.683901 -1.55874 -3 -0.795609 -3 0 
C -3 0.795609 -2.683901 1.55874 -2.12132 2.12132 
C -1.55874 2.683901 -0.795609 3 0 3 
z
" id="m14c4dbb33a" style="stroke:#00ffff;"/>
    </defs>
    <g clip-path="url(#pc152c0c1fe)">
     <use style="fill:#00ffff;stroke:#00ffff;" x="87.262863" xlink:href="#m14c4dbb33a" y="239.026479"/>
     <use style="fill:#00ffff;stroke:#00ffff;" x="112.870267" xlink:href="#m14c4dbb33a" y="152.980883"/>
     <use style="fill:#00ffff;stroke:#00ffff;" x="151.274865" xlink:href="#m14c4dbb33a" y="106.922302"/>
     <use style="fill:#00ffff;stroke:#00ffff;" x="205.945294" xlink:href="#m14c4dbb33a" y="70.184375"/>
    </g>
   </g>
   <g id="patch_3">
    <path d="M 41.099375 289.311 
L 41.099375 23.199 
" style="fill:none;stroke:#000000;stroke-linecap:square;stroke-linejoin:miter;stroke-width:0.8;"/>
   </g>
   <g id="patch_4">
    <path d="M 398.219375 289.311 
L 398.219375 23.199 
" style="fill:none;stroke:#000000;stroke-linecap:square;stroke-linejoin:miter;stroke-width:0.8;"/>
   </g>
   <g id="patch_5">
    <path d="M 41.099375 289.311 
L 398.219375 289.311 
" style="fill:none;stroke:#000000;stroke-linecap:square;stroke-linejoin:miter;stroke-width:0.8;"/>
   </g>
   <g id="patch_6">
    <path d="M 41.099375 23.199 
L 398.219375 23.199 
" style="fill:none;stroke:#000000;stroke-linecap:square;stroke-linejoin:miter;stroke-width:0.8;"/>
   </g>
   <g id="text_14">
    <!-- Kimono1_1920x1024_24 -->
    <g transform="translate(145.659125 17.199)scale(0.144 -0.144)">
     <defs>
      <path d="M 29.890625 36.71875 
L 54.296875 12.453125 
Q 60.296875 6.453125 64.546875 4.265625 
Q 68.796875 2.09375 73.046875 1.8125 
L 73.046875 0 
L 41.546875 0 
L 41.546875 1.8125 
Q 44.390625 1.8125 45.625 2.765625 
Q 46.875 3.71875 46.875 4.890625 
Q 46.875 6.0625 46.40625 6.984375 
Q 45.953125 7.90625 43.359375 10.453125 
L 20.515625 33.0625 
L 20.515625 11.71875 
Q 20.515625 6.6875 21.140625 5.078125 
Q 21.625 3.859375 23.1875 2.984375 
Q 25.296875 1.8125 27.640625 1.8125 
L 29.890625 1.8125 
L 29.890625 0 
L 1.65625 0 
L 1.65625 1.8125 
L 4 1.8125 
Q 8.109375 1.8125 9.96875 4.203125 
Q 11.140625 5.765625 11.140625 11.71875 
L 11.140625 54.5 
Q 11.140625 59.515625 10.5 61.1875 
Q 10.015625 62.359375 8.5 63.234375 
Q 6.34375 64.40625 4 64.40625 
L 1.65625 64.40625 
L 1.65625 66.21875 
L 29.890625 66.21875 
L 29.890625 64.40625 
L 27.640625 64.40625 
Q 25.34375 64.40625 23.1875 63.28125 
Q 21.6875 62.5 21.09375 60.9375 
Q 20.515625 59.375 20.515625 54.5 
L 20.515625 34.234375 
Q 21.484375 35.15625 27.203125 40.4375 
Q 41.703125 53.71875 44.734375 58.15625 
Q 46.046875 60.109375 46.046875 61.578125 
Q 46.046875 62.703125 45.015625 63.546875 
Q 44 64.40625 41.546875 64.40625 
L 40.046875 64.40625 
L 40.046875 66.21875 
L 64.359375 66.21875 
L 64.359375 64.40625 
Q 62.203125 64.359375 60.4375 63.8125 
Q 58.6875 63.28125 56.140625 61.734375 
Q 53.609375 60.203125 49.90625 56.78125 
Q 48.828125 55.8125 39.984375 46.78125 
z
" id="TimesNewRomanPSMT-75"/>
      <path d="M 14.5 69.4375 
Q 16.546875 69.4375 17.984375 67.984375 
Q 19.4375 66.546875 19.4375 64.5 
Q 19.4375 62.453125 17.984375 60.984375 
Q 16.546875 59.515625 14.5 59.515625 
Q 12.453125 59.515625 10.984375 60.984375 
Q 9.515625 62.453125 9.515625 64.5 
Q 9.515625 66.546875 10.953125 67.984375 
Q 12.40625 69.4375 14.5 69.4375 
z
M 18.5625 46.046875 
L 18.5625 10.109375 
Q 18.5625 5.90625 19.171875 4.515625 
Q 19.78125 3.125 20.96875 2.4375 
Q 22.171875 1.765625 25.34375 1.765625 
L 25.34375 0 
L 3.609375 0 
L 3.609375 1.765625 
Q 6.890625 1.765625 8 2.390625 
Q 9.125 3.03125 9.78125 4.484375 
Q 10.453125 5.953125 10.453125 10.109375 
L 10.453125 27.34375 
Q 10.453125 34.625 10.015625 36.765625 
Q 9.671875 38.328125 8.9375 38.9375 
Q 8.203125 39.546875 6.9375 39.546875 
Q 5.5625 39.546875 3.609375 38.8125 
L 2.9375 40.578125 
L 16.40625 46.046875 
z
" id="TimesNewRomanPSMT-105"/>
      <path d="M 16.40625 36.53125 
Q 21.296875 41.40625 22.171875 42.140625 
Q 24.359375 44 26.890625 45.015625 
Q 29.4375 46.046875 31.9375 46.046875 
Q 36.140625 46.046875 39.15625 43.59375 
Q 42.1875 41.15625 43.21875 36.53125 
Q 48.25 42.390625 51.703125 44.21875 
Q 55.171875 46.046875 58.84375 46.046875 
Q 62.40625 46.046875 65.15625 44.21875 
Q 67.921875 42.390625 69.53125 38.234375 
Q 70.609375 35.40625 70.609375 29.34375 
L 70.609375 10.109375 
Q 70.609375 5.90625 71.234375 4.34375 
Q 71.734375 3.265625 73.046875 2.515625 
Q 74.359375 1.765625 77.34375 1.765625 
L 77.34375 0 
L 55.28125 0 
L 55.28125 1.765625 
L 56.203125 1.765625 
Q 59.078125 1.765625 60.6875 2.875 
Q 61.8125 3.65625 62.3125 5.375 
Q 62.5 6.203125 62.5 10.109375 
L 62.5 29.34375 
Q 62.5 34.8125 61.1875 37.0625 
Q 59.28125 40.1875 55.078125 40.1875 
Q 52.484375 40.1875 49.875 38.890625 
Q 47.265625 37.59375 43.5625 34.078125 
L 43.453125 33.546875 
L 43.5625 31.453125 
L 43.5625 10.109375 
Q 43.5625 5.515625 44.0625 4.390625 
Q 44.578125 3.265625 45.984375 2.515625 
Q 47.40625 1.765625 50.828125 1.765625 
L 50.828125 0 
L 28.21875 0 
L 28.21875 1.765625 
Q 31.9375 1.765625 33.328125 2.640625 
Q 34.71875 3.515625 35.25 5.28125 
Q 35.5 6.109375 35.5 10.109375 
L 35.5 29.34375 
Q 35.5 34.8125 33.890625 37.203125 
Q 31.734375 40.328125 27.875 40.328125 
Q 25.25 40.328125 22.65625 38.921875 
Q 18.609375 36.765625 16.40625 34.078125 
L 16.40625 10.109375 
Q 16.40625 5.71875 17.015625 4.390625 
Q 17.625 3.078125 18.8125 2.421875 
Q 20.015625 1.765625 23.6875 1.765625 
L 23.6875 0 
L 1.5625 0 
L 1.5625 1.765625 
Q 4.640625 1.765625 5.859375 2.421875 
Q 7.078125 3.078125 7.703125 4.515625 
Q 8.34375 5.953125 8.34375 10.109375 
L 8.34375 27.203125 
Q 8.34375 34.578125 7.90625 36.71875 
Q 7.5625 38.328125 6.828125 38.9375 
Q 6.109375 39.546875 4.828125 39.546875 
Q 3.46875 39.546875 1.5625 38.8125 
L 0.828125 40.578125 
L 14.3125 46.046875 
L 16.40625 46.046875 
z
" id="TimesNewRomanPSMT-109"/>
      <path d="M 25 46.046875 
Q 35.15625 46.046875 41.3125 38.328125 
Q 46.53125 31.734375 46.53125 23.1875 
Q 46.53125 17.1875 43.640625 11.03125 
Q 40.765625 4.890625 35.71875 1.75 
Q 30.671875 -1.375 24.46875 -1.375 
Q 14.359375 -1.375 8.40625 6.6875 
Q 3.375 13.484375 3.375 21.921875 
Q 3.375 28.078125 6.421875 34.15625 
Q 9.46875 40.234375 14.453125 43.140625 
Q 19.4375 46.046875 25 46.046875 
z
M 23.484375 42.875 
Q 20.90625 42.875 18.28125 41.328125 
Q 15.671875 39.796875 14.0625 35.9375 
Q 12.453125 32.078125 12.453125 26.03125 
Q 12.453125 16.265625 16.328125 9.171875 
Q 20.21875 2.09375 26.5625 2.09375 
Q 31.296875 2.09375 34.375 6 
Q 37.453125 9.90625 37.453125 19.4375 
Q 37.453125 31.34375 32.328125 38.1875 
Q 28.859375 42.875 23.484375 42.875 
z
" id="TimesNewRomanPSMT-111"/>
      <path d="M 16.15625 36.578125 
Q 24.03125 46.046875 31.15625 46.046875 
Q 34.8125 46.046875 37.453125 44.21875 
Q 40.09375 42.390625 41.65625 38.1875 
Q 42.71875 35.25 42.71875 29.203125 
L 42.71875 10.109375 
Q 42.71875 5.859375 43.40625 4.34375 
Q 43.953125 3.125 45.140625 2.4375 
Q 46.34375 1.765625 49.5625 1.765625 
L 49.5625 0 
L 27.4375 0 
L 27.4375 1.765625 
L 28.375 1.765625 
Q 31.5 1.765625 32.734375 2.703125 
Q 33.984375 3.65625 34.46875 5.515625 
Q 34.671875 6.25 34.671875 10.109375 
L 34.671875 28.421875 
Q 34.671875 34.515625 33.078125 37.28125 
Q 31.5 40.046875 27.734375 40.046875 
Q 21.921875 40.046875 16.15625 33.6875 
L 16.15625 10.109375 
Q 16.15625 5.5625 16.703125 4.5 
Q 17.390625 3.078125 18.578125 2.421875 
Q 19.78125 1.765625 23.4375 1.765625 
L 23.4375 0 
L 1.3125 0 
L 1.3125 1.765625 
L 2.296875 1.765625 
Q 5.71875 1.765625 6.90625 3.484375 
Q 8.109375 5.21875 8.109375 10.109375 
L 8.109375 26.703125 
Q 8.109375 34.765625 7.734375 36.515625 
Q 7.375 38.28125 6.609375 38.90625 
Q 5.859375 39.546875 4.59375 39.546875 
Q 3.21875 39.546875 1.3125 38.8125 
L 0.59375 40.578125 
L 14.0625 46.046875 
L 16.15625 46.046875 
z
" id="TimesNewRomanPSMT-110"/>
      <path d="M 50.875 -21.578125 
L -0.828125 -21.578125 
L -0.828125 -17.484375 
L 50.875 -17.484375 
z
" id="TimesNewRomanPSMT-95"/>
      <path d="M 1.3125 44.734375 
L 22.359375 44.734375 
L 22.359375 42.921875 
Q 20.359375 42.921875 19.546875 42.234375 
Q 18.75 41.546875 18.75 40.4375 
Q 18.75 39.265625 20.453125 36.8125 
Q 21 36.03125 22.078125 34.375 
L 25.25 29.296875 
L 28.90625 34.375 
Q 32.421875 39.203125 32.421875 40.484375 
Q 32.421875 41.5 31.59375 42.203125 
Q 30.765625 42.921875 28.90625 42.921875 
L 28.90625 44.734375 
L 44.046875 44.734375 
L 44.046875 42.921875 
Q 41.65625 42.78125 39.890625 41.609375 
Q 37.5 39.9375 33.34375 34.375 
L 27.25 26.21875 
L 38.375 10.203125 
Q 42.484375 4.296875 44.234375 3.09375 
Q 46 1.90625 48.78125 1.765625 
L 48.78125 0 
L 27.6875 0 
L 27.6875 1.765625 
Q 29.890625 1.765625 31.109375 2.734375 
Q 32.03125 3.421875 32.03125 4.546875 
Q 32.03125 5.671875 28.90625 10.203125 
L 22.359375 19.78125 
L 15.1875 10.203125 
Q 11.859375 5.765625 11.859375 4.9375 
Q 11.859375 3.765625 12.953125 2.8125 
Q 14.0625 1.859375 16.265625 1.765625 
L 16.265625 0 
L 1.65625 0 
L 1.65625 1.765625 
Q 3.421875 2 4.734375 2.984375 
Q 6.59375 4.390625 10.984375 10.203125 
L 20.359375 22.65625 
L 11.859375 34.96875 
Q 8.25 40.234375 6.265625 41.578125 
Q 4.296875 42.921875 1.3125 42.921875 
z
" id="TimesNewRomanPSMT-120"/>
     </defs>
     <use xlink:href="#TimesNewRomanPSMT-75"/>
     <use x="72.216797" xlink:href="#TimesNewRomanPSMT-105"/>
     <use x="100" xlink:href="#TimesNewRomanPSMT-109"/>
     <use x="177.783203" xlink:href="#TimesNewRomanPSMT-111"/>
     <use x="227.783203" xlink:href="#TimesNewRomanPSMT-110"/>
     <use x="277.783203" xlink:href="#TimesNewRomanPSMT-111"/>
     <use x="327.783203" xlink:href="#TimesNewRomanPSMT-49"/>
     <use x="377.783203" xlink:href="#TimesNewRomanPSMT-95"/>
     <use x="427.783203" xlink:href="#TimesNewRomanPSMT-49"/>
     <use x="477.783203" xlink:href="#TimesNewRomanPSMT-57"/>
     <use x="527.783203" xlink:href="#TimesNewRomanPSMT-50"/>
     <use x="577.783203" xlink:href="#TimesNewRomanPSMT-48"/>
     <use x="627.783203" xlink:href="#TimesNewRomanPSMT-120"/>
     <use x="677.783203" xlink:href="#TimesNewRomanPSMT-49"/>
     <use x="727.783203" xlink:href="#TimesNewRomanPSMT-48"/>
     <use x="777.783203" xlink:href="#TimesNewRomanPSMT-50"/>
     <use x="827.783203" xlink:href="#TimesNewRomanPSMT-52"/>
     <use x="877.783203" xlink:href="#TimesNewRomanPSMT-95"/>
     <use x="927.783203" xlink:href="#TimesNewRomanPSMT-50"/>
     <use x="977.783203" xlink:href="#TimesNewRomanPSMT-52"/>
    </g>
   </g>
   <g id="legend_1">
    <g id="patch_7">
     <path d="M 271.85 283.311 
L 389.819375 283.311 
Q 392.219375 283.311 392.219375 280.911 
L 392.219375 163.320375 
Q 392.219375 160.920375 389.819375 160.920375 
L 271.85 160.920375 
Q 269.45 160.920375 269.45 163.320375 
L 269.45 280.911 
Q 269.45 283.311 271.85 283.311 
z
" style="fill:#ffffff;opacity:0.8;stroke:#cccccc;stroke-linejoin:miter;"/>
    </g>
    <g id="line2d_30">
     <path d="M 274.25 169.920375 
L 298.25 169.920375 
" style="fill:none;stroke:#ff0000;stroke-linecap:square;stroke-width:2;"/>
    </g>
    <g id="line2d_31">
     <g>
      <use style="fill:#ff0000;stroke:#ff0000;" x="286.25" xlink:href="#m285681d680" y="169.920375"/>
     </g>
    </g>
    <g id="text_15">
     <!-- Ours -->
     <g transform="translate(307.85 174.120375)scale(0.12 -0.12)">
      <defs>
       <path d="M 36.578125 67.71875 
Q 49.46875 67.71875 58.90625 57.921875 
Q 68.359375 48.140625 68.359375 33.5 
Q 68.359375 18.40625 58.828125 8.4375 
Q 49.3125 -1.515625 35.796875 -1.515625 
Q 22.125 -1.515625 12.8125 8.203125 
Q 3.515625 17.921875 3.515625 33.34375 
Q 3.515625 49.125 14.265625 59.078125 
Q 23.578125 67.71875 36.578125 67.71875 
z
M 35.640625 64.15625 
Q 26.765625 64.15625 21.390625 57.5625 
Q 14.703125 49.359375 14.703125 33.546875 
Q 14.703125 17.328125 21.625 8.59375 
Q 26.953125 1.953125 35.6875 1.953125 
Q 45.015625 1.953125 51.09375 9.21875 
Q 57.171875 16.5 57.171875 32.171875 
Q 57.171875 49.171875 50.484375 57.515625 
Q 45.125 64.15625 35.640625 64.15625 
z
" id="TimesNewRomanPSMT-79"/>
       <path d="M 42.328125 44.734375 
L 42.328125 17.625 
Q 42.328125 9.859375 42.6875 8.125 
Q 43.0625 6.390625 43.859375 5.703125 
Q 44.671875 5.03125 45.75 5.03125 
Q 47.265625 5.03125 49.171875 5.859375 
L 49.859375 4.15625 
L 36.46875 -1.375 
L 34.28125 -1.375 
L 34.28125 8.109375 
Q 28.515625 1.859375 25.484375 0.234375 
Q 22.46875 -1.375 19.09375 -1.375 
Q 15.328125 -1.375 12.5625 0.796875 
Q 9.8125 2.984375 8.734375 6.390625 
Q 7.671875 9.8125 7.671875 16.0625 
L 7.671875 36.03125 
Q 7.671875 39.203125 6.984375 40.421875 
Q 6.296875 41.65625 4.953125 42.3125 
Q 3.609375 42.96875 0.09375 42.921875 
L 0.09375 44.734375 
L 15.765625 44.734375 
L 15.765625 14.796875 
Q 15.765625 8.546875 17.9375 6.59375 
Q 20.125 4.640625 23.1875 4.640625 
Q 25.296875 4.640625 27.953125 5.953125 
Q 30.609375 7.28125 34.28125 10.984375 
L 34.28125 36.328125 
Q 34.28125 40.140625 32.890625 41.484375 
Q 31.5 42.828125 27.09375 42.921875 
L 27.09375 44.734375 
z
" id="TimesNewRomanPSMT-117"/>
       <path d="M 16.21875 46.046875 
L 16.21875 35.984375 
Q 21.828125 46.046875 27.734375 46.046875 
Q 30.421875 46.046875 32.171875 44.40625 
Q 33.9375 42.78125 33.9375 40.625 
Q 33.9375 38.71875 32.65625 37.390625 
Q 31.390625 36.078125 29.640625 36.078125 
Q 27.9375 36.078125 25.8125 37.765625 
Q 23.6875 39.453125 22.65625 39.453125 
Q 21.78125 39.453125 20.75 38.484375 
Q 18.5625 36.46875 16.21875 31.890625 
L 16.21875 10.453125 
Q 16.21875 6.734375 17.140625 4.828125 
Q 17.78125 3.515625 19.390625 2.640625 
Q 21 1.765625 24.03125 1.765625 
L 24.03125 0 
L 1.125 0 
L 1.125 1.765625 
Q 4.546875 1.765625 6.203125 2.828125 
Q 7.421875 3.609375 7.90625 5.328125 
Q 8.15625 6.15625 8.15625 10.0625 
L 8.15625 27.390625 
Q 8.15625 35.203125 7.828125 36.6875 
Q 7.515625 38.1875 6.65625 38.859375 
Q 5.8125 39.546875 4.546875 39.546875 
Q 3.03125 39.546875 1.125 38.8125 
L 0.640625 40.578125 
L 14.15625 46.046875 
z
" id="TimesNewRomanPSMT-114"/>
       <path d="M 32.03125 46.046875 
L 32.03125 30.8125 
L 30.421875 30.8125 
Q 28.5625 37.984375 25.65625 40.578125 
Q 22.75 43.171875 18.265625 43.171875 
Q 14.84375 43.171875 12.734375 41.359375 
Q 10.640625 39.546875 10.640625 37.359375 
Q 10.640625 34.625 12.203125 32.671875 
Q 13.71875 30.671875 18.359375 28.421875 
L 25.484375 24.953125 
Q 35.40625 20.125 35.40625 12.203125 
Q 35.40625 6.109375 30.78125 2.359375 
Q 26.171875 -1.375 20.453125 -1.375 
Q 16.359375 -1.375 11.078125 0.09375 
Q 9.46875 0.59375 8.453125 0.59375 
Q 7.328125 0.59375 6.6875 -0.6875 
L 5.078125 -0.6875 
L 5.078125 15.28125 
L 6.6875 15.28125 
Q 8.0625 8.453125 11.90625 4.984375 
Q 15.765625 1.515625 20.5625 1.515625 
Q 23.921875 1.515625 26.046875 3.484375 
Q 28.171875 5.46875 28.171875 8.25 
Q 28.171875 11.625 25.796875 13.921875 
Q 23.4375 16.21875 16.359375 19.734375 
Q 9.28125 23.25 7.078125 26.078125 
Q 4.890625 28.859375 4.890625 33.109375 
Q 4.890625 38.625 8.671875 42.328125 
Q 12.453125 46.046875 18.453125 46.046875 
Q 21.09375 46.046875 24.859375 44.921875 
Q 27.34375 44.1875 28.171875 44.1875 
Q 28.953125 44.1875 29.390625 44.53125 
Q 29.828125 44.875 30.421875 46.046875 
z
" id="TimesNewRomanPSMT-115"/>
      </defs>
      <use xlink:href="#TimesNewRomanPSMT-79"/>
      <use x="72.216797" xlink:href="#TimesNewRomanPSMT-117"/>
      <use x="122.216797" xlink:href="#TimesNewRomanPSMT-114"/>
      <use x="155.517578" xlink:href="#TimesNewRomanPSMT-115"/>
     </g>
    </g>
    <g id="line2d_32">
     <path d="M 274.25 186.88725 
L 298.25 186.88725 
" style="fill:none;stroke:#0000ff;stroke-linecap:square;stroke-width:2;"/>
    </g>
    <g id="line2d_33">
     <g>
      <use style="fill:#0000ff;stroke:#0000ff;" x="286.25" xlink:href="#m255dde4755" y="186.88725"/>
     </g>
    </g>
    <g id="text_16">
     <!-- CQY -->
     <g transform="translate(307.85 191.08725)scale(0.12 -0.12)">
      <defs>
       <path d="M 60.203125 67.71875 
L 61.71875 45.21875 
L 60.203125 45.21875 
Q 57.171875 55.328125 51.5625 59.765625 
Q 45.953125 64.203125 38.09375 64.203125 
Q 31.5 64.203125 26.171875 60.859375 
Q 20.84375 57.515625 17.796875 50.1875 
Q 14.75 42.875 14.75 31.984375 
Q 14.75 23 17.625 16.40625 
Q 20.515625 9.8125 26.296875 6.296875 
Q 32.078125 2.78125 39.5 2.78125 
Q 45.953125 2.78125 50.875 5.53125 
Q 55.8125 8.296875 61.71875 16.5 
L 63.234375 15.53125 
Q 58.25 6.6875 51.609375 2.578125 
Q 44.96875 -1.515625 35.84375 -1.515625 
Q 19.390625 -1.515625 10.359375 10.6875 
Q 3.609375 19.78125 3.609375 32.078125 
Q 3.609375 42 8.046875 50.296875 
Q 12.5 58.59375 20.28125 63.15625 
Q 28.078125 67.71875 37.3125 67.71875 
Q 44.484375 67.71875 51.46875 64.203125 
Q 53.515625 63.140625 54.390625 63.140625 
Q 55.71875 63.140625 56.6875 64.0625 
Q 57.953125 65.375 58.5 67.71875 
z
" id="TimesNewRomanPSMT-67"/>
       <path d="M 44.046875 -0.734375 
Q 49.03125 -9.328125 54.8125 -13.375 
Q 60.59375 -17.4375 67.96875 -18.015625 
L 67.96875 -19.578125 
Q 61.234375 -19.34375 53.5625 -16.875 
Q 45.90625 -14.40625 39.03125 -10.03125 
Q 32.171875 -5.671875 27.203125 -0.734375 
Q 20.171875 2.09375 16.0625 5.28125 
Q 10.109375 10.015625 6.8125 16.921875 
Q 3.515625 23.828125 3.515625 33.25 
Q 3.515625 48.09375 13.125 57.90625 
Q 22.75 67.71875 36.421875 67.71875 
Q 49.421875 67.71875 58.90625 57.875 
Q 68.40625 48.046875 68.40625 33.0625 
Q 68.40625 20.90625 61.640625 11.71875 
Q 54.890625 2.546875 44.046875 -0.734375 
z
M 35.84375 63.96875 
Q 26.953125 63.96875 21.53125 57.625 
Q 14.703125 49.65625 14.703125 33.25 
Q 14.703125 17.1875 21.625 8.5 
Q 27 1.8125 35.84375 1.8125 
Q 45.015625 1.8125 50.640625 8.5 
Q 57.234375 16.40625 57.234375 31.84375 
Q 57.234375 43.703125 53.609375 51.8125 
Q 50.828125 58.0625 46.21875 61.015625 
Q 41.609375 63.96875 35.84375 63.96875 
z
" id="TimesNewRomanPSMT-81"/>
       <path d="M 47.65625 66.21875 
L 70.75 66.21875 
L 70.75 64.40625 
L 69.484375 64.40625 
Q 68.21875 64.40625 65.765625 63.28125 
Q 63.328125 62.15625 61.328125 60.046875 
Q 59.328125 57.953125 56.390625 53.21875 
L 40.4375 28.078125 
L 40.4375 11.46875 
Q 40.4375 5.375 41.796875 3.859375 
Q 43.65625 1.8125 47.65625 1.8125 
L 49.8125 1.8125 
L 49.8125 0 
L 21.6875 0 
L 21.6875 1.8125 
L 24.03125 1.8125 
Q 28.21875 1.8125 29.984375 4.34375 
Q 31.0625 5.90625 31.0625 11.46875 
L 31.0625 27.15625 
L 12.890625 54.890625 
Q 9.671875 59.765625 8.515625 60.984375 
Q 7.375 62.203125 3.765625 63.921875 
Q 2.78125 64.40625 0.921875 64.40625 
L 0.921875 66.21875 
L 29.25 66.21875 
L 29.25 64.40625 
L 27.78125 64.40625 
Q 25.484375 64.40625 23.546875 63.328125 
Q 21.625 62.25 21.625 60.109375 
Q 21.625 58.34375 24.609375 53.765625 
L 38.421875 32.421875 
L 51.421875 52.828125 
Q 54.34375 57.421875 54.34375 59.671875 
Q 54.34375 61.03125 53.640625 62.109375 
Q 52.9375 63.1875 51.609375 63.796875 
Q 50.296875 64.40625 47.65625 64.40625 
z
" id="TimesNewRomanPSMT-89"/>
      </defs>
      <use xlink:href="#TimesNewRomanPSMT-67"/>
      <use x="66.699219" xlink:href="#TimesNewRomanPSMT-81"/>
      <use x="138.916016" xlink:href="#TimesNewRomanPSMT-89"/>
     </g>
    </g>
    <g id="line2d_34">
     <path d="M 274.25 203.854125 
L 298.25 203.854125 
" style="fill:none;stroke:#8a2be2;stroke-linecap:square;stroke-width:2;"/>
    </g>
    <g id="line2d_35">
     <g>
      <use style="fill:#8a2be2;stroke:#8a2be2;" x="286.25" xlink:href="#m3dac4c1793" y="203.854125"/>
     </g>
    </g>
    <g id="text_17">
     <!-- Lu_TPAMI2021 -->
     <g transform="translate(307.85 208.054125)scale(0.12 -0.12)">
      <defs>
       <path d="M 57.328125 18.3125 
L 58.9375 17.96875 
L 53.265625 0 
L 2 0 
L 2 1.8125 
L 4.5 1.8125 
Q 8.6875 1.8125 10.5 4.546875 
Q 11.53125 6.109375 11.53125 11.765625 
L 11.53125 54.5 
Q 11.53125 60.6875 10.15625 62.25 
Q 8.25 64.40625 4.5 64.40625 
L 2 64.40625 
L 2 66.21875 
L 31.984375 66.21875 
L 31.984375 64.40625 
Q 26.703125 64.453125 24.578125 63.421875 
Q 22.46875 62.40625 21.6875 60.84375 
Q 20.90625 59.28125 20.90625 53.375 
L 20.90625 11.765625 
Q 20.90625 7.71875 21.6875 6.203125 
Q 22.265625 5.171875 23.484375 4.6875 
Q 24.703125 4.203125 31.109375 4.203125 
L 35.9375 4.203125 
Q 43.5625 4.203125 46.625 5.328125 
Q 49.703125 6.453125 52.234375 9.296875 
Q 54.78125 12.15625 57.328125 18.3125 
z
" id="TimesNewRomanPSMT-76"/>
       <path d="M 57.859375 66.21875 
L 58.59375 50.6875 
L 56.734375 50.6875 
Q 56.203125 54.78125 55.28125 56.546875 
Q 53.765625 59.375 51.25 60.71875 
Q 48.734375 62.0625 44.625 62.0625 
L 35.296875 62.0625 
L 35.296875 11.46875 
Q 35.296875 5.375 36.625 3.859375 
Q 38.484375 1.8125 42.328125 1.8125 
L 44.625 1.8125 
L 44.625 0 
L 16.546875 0 
L 16.546875 1.8125 
L 18.890625 1.8125 
Q 23.09375 1.8125 24.859375 4.34375 
Q 25.921875 5.90625 25.921875 11.46875 
L 25.921875 62.0625 
L 17.96875 62.0625 
Q 13.328125 62.0625 11.375 61.375 
Q 8.84375 60.453125 7.03125 57.8125 
Q 5.21875 55.171875 4.890625 50.6875 
L 3.03125 50.6875 
L 3.8125 66.21875 
z
" id="TimesNewRomanPSMT-84"/>
       <path d="M 45.75 22.171875 
L 20.125 22.171875 
L 15.625 11.71875 
Q 13.96875 7.859375 13.96875 5.953125 
Q 13.96875 4.4375 15.40625 3.296875 
Q 16.84375 2.15625 21.625 1.8125 
L 21.625 0 
L 0.78125 0 
L 0.78125 1.8125 
Q 4.9375 2.546875 6.15625 3.71875 
Q 8.640625 6.0625 11.671875 13.234375 
L 34.96875 67.71875 
L 36.671875 67.71875 
L 59.71875 12.640625 
Q 62.5 6 64.765625 4.015625 
Q 67.046875 2.046875 71.09375 1.8125 
L 71.09375 0 
L 44.96875 0 
L 44.96875 1.8125 
Q 48.921875 2 50.3125 3.125 
Q 51.703125 4.25 51.703125 5.859375 
Q 51.703125 8.015625 49.75 12.640625 
z
M 44.390625 25.78125 
L 33.15625 52.546875 
L 21.625 25.78125 
z
" id="TimesNewRomanPSMT-65"/>
       <path d="M 40.921875 0 
L 15.328125 55.71875 
L 15.328125 11.46875 
Q 15.328125 5.375 16.65625 3.859375 
Q 18.453125 1.8125 22.359375 1.8125 
L 24.703125 1.8125 
L 24.703125 0 
L 1.65625 0 
L 1.65625 1.8125 
L 4 1.8125 
Q 8.203125 1.8125 9.96875 4.34375 
Q 11.03125 5.90625 11.03125 11.46875 
L 11.03125 54.734375 
Q 11.03125 59.125 10.0625 61.078125 
Q 9.375 62.5 7.546875 63.453125 
Q 5.71875 64.40625 1.65625 64.40625 
L 1.65625 66.21875 
L 20.40625 66.21875 
L 44.4375 14.40625 
L 68.0625 66.21875 
L 86.8125 66.21875 
L 86.8125 64.40625 
L 84.515625 64.40625 
Q 80.28125 64.40625 78.515625 61.859375 
Q 77.4375 60.296875 77.4375 54.734375 
L 77.4375 11.46875 
Q 77.4375 5.375 78.8125 3.859375 
Q 80.609375 1.8125 84.515625 1.8125 
L 86.8125 1.8125 
L 86.8125 0 
L 58.6875 0 
L 58.6875 1.8125 
L 61.03125 1.8125 
Q 65.28125 1.8125 67 4.34375 
Q 68.0625 5.90625 68.0625 11.46875 
L 68.0625 55.71875 
L 42.53125 0 
z
" id="TimesNewRomanPSMT-77"/>
       <path d="M 30.859375 1.8125 
L 30.859375 0 
L 2.484375 0 
L 2.484375 1.8125 
L 4.828125 1.8125 
Q 8.9375 1.8125 10.796875 4.203125 
Q 11.96875 5.765625 11.96875 11.71875 
L 11.96875 54.5 
Q 11.96875 59.515625 11.328125 61.140625 
Q 10.84375 62.359375 9.328125 63.234375 
Q 7.171875 64.40625 4.828125 64.40625 
L 2.484375 64.40625 
L 2.484375 66.21875 
L 30.859375 66.21875 
L 30.859375 64.40625 
L 28.46875 64.40625 
Q 24.421875 64.40625 22.5625 62.015625 
Q 21.34375 60.453125 21.34375 54.5 
L 21.34375 11.71875 
Q 21.34375 6.6875 21.96875 5.078125 
Q 22.46875 3.859375 24.03125 2.984375 
Q 26.125 1.8125 28.46875 1.8125 
z
" id="TimesNewRomanPSMT-73"/>
      </defs>
      <use xlink:href="#TimesNewRomanPSMT-76"/>
      <use x="61.083984" xlink:href="#TimesNewRomanPSMT-117"/>
      <use x="111.083984" xlink:href="#TimesNewRomanPSMT-95"/>
      <use x="161.083984" xlink:href="#TimesNewRomanPSMT-84"/>
      <use x="222.167969" xlink:href="#TimesNewRomanPSMT-80"/>
      <use x="268.658203" xlink:href="#TimesNewRomanPSMT-65"/>
      <use x="340.875" xlink:href="#TimesNewRomanPSMT-77"/>
      <use x="429.791016" xlink:href="#TimesNewRomanPSMT-73"/>
      <use x="463.091797" xlink:href="#TimesNewRomanPSMT-50"/>
      <use x="513.091797" xlink:href="#TimesNewRomanPSMT-48"/>
      <use x="563.091797" xlink:href="#TimesNewRomanPSMT-50"/>
      <use x="613.091797" xlink:href="#TimesNewRomanPSMT-49"/>
     </g>
    </g>
    <g id="line2d_36">
     <path d="M 274.25 220.8435 
L 298.25 220.8435 
" style="fill:none;stroke:#00ffff;stroke-linecap:square;stroke-width:2;"/>
    </g>
    <g id="line2d_37">
     <g>
      <use style="fill:#00ffff;stroke:#00ffff;" x="286.25" xlink:href="#m14c4dbb33a" y="220.8435"/>
     </g>
    </g>
    <g id="text_18">
     <!-- DCVC -->
     <g transform="translate(307.85 225.0435)scale(0.12 -0.12)">
      <defs>
       <path d="M 1.703125 0 
L 1.703125 1.8125 
L 4.203125 1.8125 
Q 8.40625 1.8125 10.15625 4.5 
Q 11.234375 6.109375 11.234375 11.71875 
L 11.234375 54.5 
Q 11.234375 60.6875 9.859375 62.25 
Q 7.953125 64.40625 4.203125 64.40625 
L 1.703125 64.40625 
L 1.703125 66.21875 
L 28.65625 66.21875 
Q 43.5 66.21875 51.234375 62.84375 
Q 58.984375 59.46875 63.6875 51.609375 
Q 68.40625 43.75 68.40625 33.453125 
Q 68.40625 19.625 60.015625 10.359375 
Q 50.59375 0 31.296875 0 
z
M 20.609375 4.78125 
Q 26.8125 3.421875 31 3.421875 
Q 42.328125 3.421875 49.796875 11.375 
Q 57.28125 19.34375 57.28125 32.953125 
Q 57.28125 46.6875 49.796875 54.59375 
Q 42.328125 62.5 30.609375 62.5 
Q 26.21875 62.5 20.609375 61.078125 
z
" id="TimesNewRomanPSMT-68"/>
       <path d="M 71 66.21875 
L 71 64.40625 
Q 67.484375 63.765625 65.671875 62.15625 
Q 63.09375 59.765625 61.078125 54.828125 
L 37.984375 -1.515625 
L 36.1875 -1.515625 
L 11.375 55.5625 
Q 9.46875 59.96875 8.6875 60.9375 
Q 7.46875 62.453125 5.6875 63.296875 
Q 3.90625 64.15625 0.875 64.40625 
L 0.875 66.21875 
L 27.9375 66.21875 
L 27.9375 64.40625 
Q 23.34375 63.96875 21.96875 62.84375 
Q 20.609375 61.71875 20.609375 59.96875 
Q 20.609375 57.515625 22.859375 52.34375 
L 39.703125 13.53125 
L 55.328125 51.859375 
Q 57.625 57.515625 57.625 59.71875 
Q 57.625 61.140625 56.203125 62.421875 
Q 54.78125 63.71875 51.421875 64.265625 
Q 51.171875 64.3125 50.59375 64.40625 
L 50.59375 66.21875 
z
" id="TimesNewRomanPSMT-86"/>
      </defs>
      <use xlink:href="#TimesNewRomanPSMT-68"/>
      <use x="72.216797" xlink:href="#TimesNewRomanPSMT-67"/>
      <use x="138.916016" xlink:href="#TimesNewRomanPSMT-86"/>
      <use x="211.132812" xlink:href="#TimesNewRomanPSMT-67"/>
     </g>
    </g>
    <g id="line2d_38">
     <path d="M 274.25 237.810375 
L 298.25 237.810375 
" style="fill:none;stroke:#ff69b4;stroke-linecap:square;stroke-width:2;"/>
    </g>
    <g id="line2d_39">
     <g>
      <use style="fill:#ff69b4;stroke:#ff69b4;" x="286.25" xlink:href="#m43c22ae879" y="237.810375"/>
     </g>
    </g>
    <g id="text_19">
     <!-- HM(LDP) -->
     <g transform="translate(307.85 242.010375)scale(0.12 -0.12)">
      <defs>
       <path d="M 20.5625 35.5 
L 51.3125 35.5 
L 51.3125 54.4375 
Q 51.3125 59.515625 50.6875 61.140625 
Q 50.203125 62.359375 48.640625 63.234375 
Q 46.53125 64.40625 44.1875 64.40625 
L 41.84375 64.40625 
L 41.84375 66.21875 
L 70.171875 66.21875 
L 70.171875 64.40625 
L 67.828125 64.40625 
Q 65.484375 64.40625 63.375 63.28125 
Q 61.8125 62.5 61.25 60.90625 
Q 60.6875 59.328125 60.6875 54.4375 
L 60.6875 11.71875 
Q 60.6875 6.6875 61.328125 5.078125 
Q 61.8125 3.859375 63.328125 2.984375 
Q 65.484375 1.8125 67.828125 1.8125 
L 70.171875 1.8125 
L 70.171875 0 
L 41.84375 0 
L 41.84375 1.8125 
L 44.1875 1.8125 
Q 48.25 1.8125 50.09375 4.203125 
Q 51.3125 5.765625 51.3125 11.71875 
L 51.3125 31.890625 
L 20.5625 31.890625 
L 20.5625 11.71875 
Q 20.5625 6.6875 21.1875 5.078125 
Q 21.6875 3.859375 23.25 2.984375 
Q 25.34375 1.8125 27.6875 1.8125 
L 30.078125 1.8125 
L 30.078125 0 
L 1.703125 0 
L 1.703125 1.8125 
L 4.046875 1.8125 
Q 8.15625 1.8125 10.015625 4.203125 
Q 11.1875 5.765625 11.1875 11.71875 
L 11.1875 54.4375 
Q 11.1875 59.515625 10.546875 61.140625 
Q 10.0625 62.359375 8.546875 63.234375 
Q 6.390625 64.40625 4.046875 64.40625 
L 1.703125 64.40625 
L 1.703125 66.21875 
L 30.078125 66.21875 
L 30.078125 64.40625 
L 27.6875 64.40625 
Q 25.34375 64.40625 23.25 63.28125 
Q 21.734375 62.5 21.140625 60.90625 
Q 20.5625 59.328125 20.5625 54.4375 
z
" id="TimesNewRomanPSMT-72"/>
      </defs>
      <use xlink:href="#TimesNewRomanPSMT-72"/>
      <use x="72.216797" xlink:href="#TimesNewRomanPSMT-77"/>
      <use x="161.132812" xlink:href="#TimesNewRomanPSMT-40"/>
      <use x="194.433594" xlink:href="#TimesNewRomanPSMT-76"/>
      <use x="255.517578" xlink:href="#TimesNewRomanPSMT-68"/>
      <use x="327.734375" xlink:href="#TimesNewRomanPSMT-80"/>
      <use x="383.349609" xlink:href="#TimesNewRomanPSMT-41"/>
     </g>
    </g>
    <g id="line2d_40">
     <path d="M 274.25 254.77725 
L 298.25 254.77725 
" style="fill:none;stroke:#008000;stroke-linecap:square;stroke-width:2;"/>
    </g>
    <g id="line2d_41">
     <g>
      <use style="fill:#008000;stroke:#008000;" x="286.25" xlink:href="#m9e91613607" y="254.77725"/>
     </g>
    </g>
    <g id="text_20">
     <!-- AQP -->
     <g transform="translate(307.85 258.97725)scale(0.12 -0.12)">
      <use xlink:href="#TimesNewRomanPSMT-65"/>
      <use x="72.216797" xlink:href="#TimesNewRomanPSMT-81"/>
      <use x="144.433594" xlink:href="#TimesNewRomanPSMT-80"/>
     </g>
    </g>
    <g id="line2d_42">
     <path d="M 274.25 271.744125 
L 298.25 271.744125 
" style="fill:none;stroke:#696969;stroke-linecap:square;stroke-width:2;"/>
    </g>
    <g id="line2d_43">
     <g>
      <use style="fill:#696969;stroke:#696969;" x="286.25" xlink:href="#m33cfd21dbf" y="271.744125"/>
     </g>
    </g>
    <g id="text_21">
     <!-- MQP -->
     <g transform="translate(307.85 275.944125)scale(0.12 -0.12)">
      <use xlink:href="#TimesNewRomanPSMT-77"/>
      <use x="88.916016" xlink:href="#TimesNewRomanPSMT-81"/>
      <use x="161.132812" xlink:href="#TimesNewRomanPSMT-80"/>
     </g>
    </g>
   </g>
  </g>
 </g>
 <defs>
  <clipPath id="pc152c0c1fe">
   <rect height="266.112" width="357.12" x="41.099375" y="23.199"/>
  </clipPath>
 </defs>
</svg>
